<svg width="24" height="24" viewBox="0 0 24 24" fill="none" xmlns="http://www.w3.org/2000/svg">
<path d="M6.28982 12.7101L11.2898 17.7101C11.3849 17.8011 11.4971 17.8725 11.6198 17.9201C11.8633 18.0201 12.1364 18.0201 12.3798 17.9201C12.5026 17.8725 12.6147 17.8011 12.7098 17.7101L17.7098 12.7101C17.8031 12.6169 17.877 12.5062 17.9275 12.3844C17.9779 12.2625 18.0039 12.132 18.0039 12.0001C18.0039 11.7338 17.8981 11.4784 17.7098 11.2901C17.5215 11.1018 17.2661 10.996 16.9998 10.996C16.7335 10.996 16.4781 11.1018 16.2898 11.2901L12.9998 14.5901V7.0001C12.9998 6.73489 12.8945 6.48053 12.7069 6.293C12.5194 6.10546 12.265 6.0001 11.9998 6.0001C11.7346 6.0001 11.4802 6.10546 11.2927 6.293C11.1052 6.48053 10.9998 6.73489 10.9998 7.0001V14.5901L7.70981 11.2901C7.61685 11.1964 7.50625 11.122 7.38439 11.0712C7.26253 11.0204 7.13183 10.9943 6.99981 10.9943C6.8678 10.9943 6.7371 11.0204 6.61524 11.0712C6.49338 11.122 6.38278 11.1964 6.28982 11.2901C6.19609 11.3831 6.12169 11.4937 6.07092 11.6155C6.02015 11.7374 5.99402 11.8681 5.99402 12.0001C5.99402 12.1321 6.02015 12.2628 6.07092 12.3847C6.12169 12.5065 6.19609 12.6171 6.28982 12.7101Z" fill="black"/>
</svg>
