<svg width="24" height="24" viewBox="0 0 24 24" fill="none" xmlns="http://www.w3.org/2000/svg">
<path d="M1.39923 13.4505C1.31744 13.1557 1.31744 12.8443 1.39923 12.5495C2.68923 7.9075 6.94623 4.5 11.9992 4.5C17.0522 4.5 21.3092 7.907 22.5992 12.5495C22.6807 12.8445 22.6807 13.1555 22.5992 13.4505C21.3092 18.0925 17.0522 21.5 11.9992 21.5C6.94623 21.5 2.68923 18.093 1.39923 13.4505Z" stroke="black" stroke-width="1.5" stroke-linecap="round" stroke-linejoin="round"/>
<path d="M11.9992 4.5V1M7.24917 5.541L5.49917 2.51M16.7492 5.541L18.4992 2.51M3.48867 8.4915L1.01367 6.0165M20.5097 8.4905L22.9847 6.0155M16.9992 13C16.9992 15.7615 14.7607 18 11.9992 18C9.23767 18 6.99917 15.7615 6.99917 13C6.99917 10.2385 9.23767 8 11.9992 8C14.7607 8 16.9992 10.2385 16.9992 13Z" stroke="black" stroke-width="1.5" stroke-linecap="round" stroke-linejoin="round"/>
</svg>
