<svg width="25" height="24" viewBox="0 0 25 24" fill="none" xmlns="http://www.w3.org/2000/svg">
<path d="M7.93091 10.9619H9.92399V12.955H7.93091V10.9619ZM7.93091 14.9481H9.92399V16.9412H7.93091V14.9481ZM11.9171 10.9619H13.9101V12.955H11.9171V10.9619ZM11.9171 14.9481H13.9101V16.9412H11.9171V14.9481ZM15.9032 10.9619H17.8963V12.955H15.9032V10.9619ZM15.9032 14.9481H17.8963V16.9412H15.9032V14.9481Z" fill="black"/>
<path d="M5.93778 21.924H19.8893C20.9885 21.924 21.8824 21.0301 21.8824 19.9309V5.97932C21.8824 4.88014 20.9885 3.98624 19.8893 3.98624H17.8963V1.99316H15.9032V3.98624H9.92394V1.99316H7.93086V3.98624H5.93778C4.8386 3.98624 3.9447 4.88014 3.9447 5.97932V19.9309C3.9447 21.0301 4.8386 21.924 5.93778 21.924ZM19.8893 7.9724L19.8903 19.9309H5.93778V7.9724H19.8893Z" fill="black"/>
</svg>
