<svg width="13" height="13" viewBox="0 0 13 13" fill="none" xmlns="http://www.w3.org/2000/svg">
<path d="M11.7688 9.01696C11.6276 9.15805 11.4363 9.2373 11.2367 9.2373C11.0371 9.2373 10.8458 9.15805 10.7046 9.01696L6.97934 5.29168L3.25406 9.01696C3.11213 9.15405 2.92202 9.2299 2.7247 9.22819C2.52737 9.22647 2.33862 9.14733 2.19908 9.00779C2.05955 8.86826 1.9804 8.6795 1.97868 8.48218C1.97697 8.28485 2.05282 8.09475 2.18991 7.95281L6.44727 3.69545C6.5884 3.55437 6.77979 3.47511 6.97934 3.47511C7.1789 3.47511 7.37029 3.55437 7.51142 3.69545L11.7688 7.95281C11.9099 8.09394 11.9891 8.28533 11.9891 8.48488C11.9891 8.68444 11.9099 8.87583 11.7688 9.01696Z" fill="white"/>
</svg>
