<svg width="12" height="12" viewBox="0 0 12 12" fill="none" xmlns="http://www.w3.org/2000/svg">
<path d="M10.7726 8.03041C10.632 8.17101 10.4412 8.25 10.2423 8.25C10.0435 8.25 9.85274 8.17101 9.7121 8.03041L5.9996 4.31791L2.2871 8.03041C2.14565 8.16703 1.95619 8.24262 1.75955 8.24092C1.5629 8.23921 1.37479 8.16033 1.23573 8.02127C1.09668 7.88222 1.0178 7.69411 1.01609 7.49746C1.01438 7.30081 1.08998 7.11136 1.2266 6.96991L5.46935 2.72716C5.60999 2.58656 5.80072 2.50757 5.9996 2.50757C6.19847 2.50757 6.3892 2.58656 6.52985 2.72716L10.7726 6.96991C10.9132 7.11056 10.9922 7.30129 10.9922 7.50016C10.9922 7.69903 10.9132 7.88976 10.7726 8.03041Z" fill="#1813FF"/>
</svg>
