<svg width="12" height="12" viewBox="0 0 12 12" fill="none" xmlns="http://www.w3.org/2000/svg">
<path d="M7.61 3.015L8.875 2.045L7.28 2L6.75 0.5L6.22 2L4.625 2.045L5.89 3.015L5.435 4.545L6.75 3.64L8.065 4.545L7.61 3.015Z" fill="#E6E6E6"/>
<path d="M9.805 6.125L10.625 5.5L9.595 5.475L9.25 4.5L8.905 5.475L7.875 5.5L8.695 6.125L8.4 7.115L9.25 6.53L10.1 7.115L9.805 6.125Z" fill="#E6E6E6"/>
<path d="M3.5 3.00021C3.5 6.04021 5.96 8.50021 9 8.50021C9.265 8.50021 9.525 8.48021 9.78 8.44521C8.975 9.68021 7.585 10.5002 6 10.5002C3.515 10.5002 1.5 8.48521 1.5 6.00021C1.5 4.41521 2.32 3.02521 3.555 2.22021C3.52 2.47521 3.5 2.73521 3.5 3.00021Z" stroke="#E6E6E6" stroke-linecap="round" stroke-linejoin="round"/>
</svg>
