<svg width="12" height="12" viewBox="0 0 12 12" fill="none" xmlns="http://www.w3.org/2000/svg">
<path d="M4.875 1.59367H2.625C2.45095 1.59367 2.28403 1.66281 2.16096 1.78588C2.03789 1.90895 1.96875 2.07587 1.96875 2.24992V9.74992C1.96875 9.92396 2.03789 10.0909 2.16096 10.214C2.28403 10.337 2.45095 10.4062 2.625 10.4062H4.875C4.96118 10.4062 5.04652 10.3892 5.12614 10.3562C5.20576 10.3232 5.2781 10.2749 5.33904 10.214C5.39998 10.153 5.44832 10.0807 5.4813 10.0011C5.51428 9.92143 5.53125 9.8361 5.53125 9.74992V2.24992C5.53125 2.16374 5.51428 2.0784 5.4813 1.99878C5.44832 1.91916 5.39998 1.84682 5.33904 1.78588C5.2781 1.72494 5.20576 1.6766 5.12614 1.64362C5.04652 1.61064 4.96118 1.59367 4.875 1.59367ZM2.53125 3.65617H4.96875V8.34367H2.53125V3.65617ZM2.625 2.15617H4.875C4.89986 2.15617 4.92371 2.16604 4.94129 2.18362C4.95887 2.20121 4.96875 2.22505 4.96875 2.24992V3.09367H2.53125V2.24992C2.53125 2.22505 2.54113 2.20121 2.55871 2.18362C2.57629 2.16604 2.60014 2.15617 2.625 2.15617ZM4.875 9.84367H2.625C2.60014 9.84367 2.57629 9.83379 2.55871 9.81621C2.54113 9.79863 2.53125 9.77478 2.53125 9.74992V8.90617H4.96875V9.74992C4.96875 9.77478 4.95887 9.79863 4.94129 9.81621C4.92371 9.83379 4.89986 9.84367 4.875 9.84367ZM10.7672 9.14054L9.21141 1.74179C9.19385 1.65709 9.15972 1.5767 9.11098 1.50523C9.06224 1.43377 8.99985 1.37265 8.92741 1.32538C8.85496 1.27812 8.77389 1.24564 8.68884 1.22982C8.6038 1.214 8.51647 1.21515 8.43188 1.2332L6.23766 1.70476C6.06784 1.74209 5.9196 1.84487 5.82508 1.99081C5.73057 2.13674 5.69742 2.31406 5.73281 2.48429L7.28859 9.88163C7.30629 9.96663 7.34068 10.0473 7.38976 10.1189C7.43884 10.1905 7.50164 10.2517 7.57453 10.2988C7.68002 10.3678 7.80332 10.4046 7.92938 10.4048C7.97666 10.405 8.02383 10.4 8.07 10.3898L10.2642 9.91867C10.4334 9.88091 10.5809 9.77816 10.675 9.63259C10.7691 9.48702 10.8022 9.3103 10.7672 9.14054ZM6.88547 5.23492L9.26344 4.72398L9.92531 7.8721L7.54688 8.38163L6.88547 5.23492ZM6.57469 3.75554L8.95312 3.2432L9.14766 4.17179L6.76969 4.68273L6.57469 3.75554ZM6.35625 2.25554L8.55 1.78445C8.55654 1.78376 8.56314 1.78376 8.56969 1.78445C8.58721 1.7845 8.60433 1.78971 8.61891 1.79945C8.62967 1.8063 8.63893 1.81529 8.6461 1.82585C8.65328 1.8364 8.65822 1.84832 8.66062 1.86085L8.83641 2.69617L6.45891 3.20335L6.28359 2.36992C6.27812 2.345 6.28267 2.31894 6.29627 2.29736C6.30986 2.27578 6.33141 2.26042 6.35625 2.2546V2.25554ZM10.1442 9.37117L7.95 9.84367C7.93825 9.84627 7.9261 9.84649 7.91426 9.84432C7.90243 9.84214 7.89115 9.83762 7.88109 9.83101C7.87033 9.82415 7.86107 9.81517 7.8539 9.80461C7.84672 9.79405 7.84178 9.78214 7.83938 9.7696L7.66359 8.93429L10.0411 8.42335L10.2188 9.25445C10.2215 9.26695 10.2218 9.27987 10.2195 9.29246C10.2172 9.30506 10.2125 9.31709 10.2056 9.32785C10.1987 9.33861 10.1897 9.3479 10.1791 9.35517C10.1686 9.36244 10.1567 9.36756 10.1442 9.37023V9.37117Z" fill="black"/>
</svg>
