<svg width="12" height="13" viewBox="0 0 12 13" fill="none" xmlns="http://www.w3.org/2000/svg">
<path d="M7.69531 6.85938C7.76302 6.85938 8.01693 6.97396 8.45703 7.20312C8.89714 7.43229 9.13021 7.57031 9.15625 7.61719C9.16667 7.64323 9.17188 7.68229 9.17188 7.73438C9.17188 7.90625 9.1276 8.10417 9.03906 8.32812C8.95573 8.53125 8.77083 8.70182 8.48438 8.83984C8.19792 8.97786 7.93229 9.04688 7.6875 9.04688C7.39062 9.04688 6.89583 8.88542 6.20312 8.5625C5.69271 8.32812 5.25 8.02083 4.875 7.64062C4.5 7.26042 4.11458 6.77865 3.71875 6.19531C3.34375 5.63802 3.15885 5.13281 3.16406 4.67969V4.61719C3.17969 4.14323 3.3724 3.73177 3.74219 3.38281C3.86719 3.26823 4.0026 3.21094 4.14844 3.21094C4.17969 3.21094 4.22656 3.21484 4.28906 3.22266C4.35156 3.23047 4.40104 3.23438 4.4375 3.23438C4.53646 3.23438 4.60547 3.2513 4.64453 3.28516C4.68359 3.31901 4.72396 3.39062 4.76562 3.5C4.80729 3.60417 4.89323 3.83333 5.02344 4.1875C5.15365 4.54167 5.21875 4.73698 5.21875 4.77344C5.21875 4.88281 5.12891 5.03255 4.94922 5.22266C4.76953 5.41276 4.67969 5.53385 4.67969 5.58594C4.67969 5.6224 4.69271 5.66146 4.71875 5.70312C4.89583 6.08333 5.16146 6.4401 5.51562 6.77344C5.80729 7.04948 6.20052 7.3125 6.69531 7.5625C6.75781 7.59896 6.8151 7.61719 6.86719 7.61719C6.94531 7.61719 7.08594 7.49089 7.28906 7.23828C7.49219 6.98568 7.6276 6.85938 7.69531 6.85938ZM6.10938 11C6.77083 11 7.40495 10.8698 8.01172 10.6094C8.61849 10.349 9.14062 10 9.57812 9.5625C10.0156 9.125 10.3646 8.60286 10.625 7.99609C10.8854 7.38932 11.0156 6.75521 11.0156 6.09375C11.0156 5.43229 10.8854 4.79818 10.625 4.19141C10.3646 3.58464 10.0156 3.0625 9.57812 2.625C9.14062 2.1875 8.61849 1.83854 8.01172 1.57812C7.40495 1.31771 6.77083 1.1875 6.10938 1.1875C5.44792 1.1875 4.8138 1.31771 4.20703 1.57812C3.60026 1.83854 3.07812 2.1875 2.64062 2.625C2.20312 3.0625 1.85417 3.58464 1.59375 4.19141C1.33333 4.79818 1.20312 5.43229 1.20312 6.09375C1.20312 7.15104 1.51562 8.10938 2.14062 8.96875L1.52344 10.7891L3.41406 10.1875C4.23698 10.7292 5.13542 11 6.10938 11ZM6.10938 0.203125C6.90625 0.203125 7.66797 0.359375 8.39453 0.671875C9.12109 0.984375 9.7474 1.40365 10.2734 1.92969C10.7995 2.45573 11.2188 3.08203 11.5312 3.80859C11.8438 4.53516 12 5.29688 12 6.09375C12 6.89062 11.8438 7.65234 11.5312 8.37891C11.2188 9.10547 10.7995 9.73177 10.2734 10.2578C9.7474 10.7839 9.12109 11.2031 8.39453 11.5156C7.66797 11.8281 6.90625 11.9844 6.10938 11.9844C5.09375 11.9844 4.14323 11.7396 3.25781 11.25L0 12.2969L1.0625 9.13281C0.5 8.20573 0.21875 7.19271 0.21875 6.09375C0.21875 5.29688 0.375 4.53516 0.6875 3.80859C1 3.08203 1.41927 2.45573 1.94531 1.92969C2.47135 1.40365 3.09766 0.984375 3.82422 0.671875C4.55078 0.359375 5.3125 0.203125 6.10938 0.203125Z" fill="black"/>
</svg>
