<svg width="12" height="12" viewBox="0 0 12 12" fill="none" xmlns="http://www.w3.org/2000/svg">
<path d="M6 1V1.5M6 10.5V11M11 6H10.5M1.5 6H1M9.535 2.465L9.339 2.6615M2.661 9.339L2.4645 9.5355M9.535 9.535L9.339 9.3385M2.661 2.661L2.4645 2.4645M3.1705 5C2.94388 5.64154 2.94207 6.34106 3.16537 6.98376C3.38866 7.62647 3.82379 8.17418 4.39936 8.53702C4.97492 8.89986 5.65673 9.05627 6.3329 8.98059C7.00906 8.90491 7.63942 8.60163 8.12053 8.12053C8.60163 7.63942 8.90491 7.00906 8.98059 6.3329C9.05627 5.65673 8.89986 4.97492 8.53702 4.39936C8.17418 3.82379 7.62647 3.38866 6.98376 3.16537C6.34106 2.94207 5.64154 2.94388 5 3.1705" stroke="url(#paint0_linear_65_2197)" stroke-linecap="round"/>
<defs>
<linearGradient id="paint0_linear_65_2197" x1="1" y1="6" x2="11" y2="6" gradientUnits="userSpaceOnUse">
<stop stop-color="#F1D81A"/>
<stop offset="0.5" stop-color="#FF9500"/>
<stop offset="1" stop-color="#FF6A00"/>
</linearGradient>
</defs>
</svg>
