<svg width="25" height="24" viewBox="0 0 25 24" fill="none" xmlns="http://www.w3.org/2000/svg">
<path fill-rule="evenodd" clip-rule="evenodd" d="M12.1661 19.4323C9.98636 19.43 7.89658 18.563 6.35527 17.0217C4.81396 15.4804 3.94701 13.3906 3.94464 11.2109C3.94464 6.67713 7.63233 2.98944 12.1661 2.98944C16.6998 2.98944 20.3875 6.67713 20.3875 11.2109C20.3875 15.7446 16.6998 19.4323 12.1661 19.4323ZM12.1661 1.49463C9.58918 1.49463 7.11781 2.5183 5.29566 4.34046C3.4735 6.16261 2.44983 8.63398 2.44983 11.2109C2.44983 13.7878 3.4735 16.2592 5.29566 18.0813C7.11781 19.9035 9.58918 20.9272 12.1661 20.9272C14.743 20.9272 17.2144 19.9035 19.0365 18.0813C20.8587 16.2592 21.8824 13.7878 21.8824 11.2109C21.8824 8.63398 20.8587 6.16261 19.0365 4.34046C17.2144 2.5183 14.743 1.49463 12.1661 1.49463ZM16.6505 10.4635H12.9135V5.23165C12.9135 5.03343 12.8348 4.84332 12.6946 4.70316C12.5544 4.56299 12.3643 4.48425 12.1661 4.48425C11.9679 4.48425 11.7778 4.56299 11.6376 4.70316C11.4974 4.84332 11.4187 5.03343 11.4187 5.23165V11.2109C11.4187 11.4091 11.4974 11.5992 11.6376 11.7394C11.7778 11.8796 11.9679 11.9583 12.1661 11.9583H16.6505C16.8487 11.9583 17.0389 11.8796 17.179 11.7394C17.3192 11.5992 17.3979 11.4091 17.3979 11.2109C17.3979 11.0127 17.3192 10.8226 17.179 10.6824C17.0389 10.5422 16.8487 10.4635 16.6505 10.4635Z" fill="#F4F4F4"/>
</svg>
