<svg width="25" height="24" viewBox="0 0 25 24" fill="none" xmlns="http://www.w3.org/2000/svg">
<path fill-rule="evenodd" clip-rule="evenodd" d="M12.1661 19.4326C9.98636 19.4302 7.89658 18.5633 6.35527 17.022C4.81396 15.4807 3.94701 13.3909 3.94464 11.2111C3.94464 6.67738 7.63233 2.98968 12.1661 2.98968C16.6998 2.98968 20.3875 6.67738 20.3875 11.2111C20.3875 15.7449 16.6998 19.4326 12.1661 19.4326ZM12.1661 1.49487C9.58918 1.49487 7.11781 2.51855 5.29566 4.3407C3.4735 6.16285 2.44983 8.63422 2.44983 11.2111C2.44983 13.788 3.4735 16.2594 5.29566 18.0816C7.11781 19.9037 9.58918 20.9274 12.1661 20.9274C14.743 20.9274 17.2144 19.9037 19.0365 18.0816C20.8587 16.2594 21.8824 13.788 21.8824 11.2111C21.8824 8.63422 20.8587 6.16285 19.0365 4.3407C17.2144 2.51855 14.743 1.49487 12.1661 1.49487ZM16.6505 10.4637H12.9135V5.2319C12.9135 5.03367 12.8348 4.84357 12.6946 4.7034C12.5544 4.56324 12.3643 4.48449 12.1661 4.48449C11.9679 4.48449 11.7778 4.56324 11.6376 4.7034C11.4974 4.84357 11.4187 5.03367 11.4187 5.2319V11.2111C11.4187 11.4094 11.4974 11.5995 11.6376 11.7396C11.7778 11.8798 11.9679 11.9585 12.1661 11.9585H16.6505C16.8487 11.9585 17.0389 11.8798 17.179 11.7396C17.3192 11.5995 17.3979 11.4094 17.3979 11.2111C17.3979 11.0129 17.3192 10.8228 17.179 10.6826C17.0389 10.5425 16.8487 10.4637 16.6505 10.4637Z" fill="black"/>
</svg>
