<svg width="16" height="16" viewBox="0 0 16 16" fill="none" xmlns="http://www.w3.org/2000/svg">
<path d="M2.66667 5.33301H8.66667M11.3333 5.33301H13.3333M7.33334 10.6663H13.3333M2.66667 10.6663H4.66667" stroke="#FBFBFB" stroke-linecap="round" stroke-linejoin="round"/>
<path d="M6.00001 11.9997C6.73638 11.9997 7.33334 11.4027 7.33334 10.6663C7.33334 9.92996 6.73638 9.33301 6.00001 9.33301C5.26363 9.33301 4.66667 9.92996 4.66667 10.6663C4.66667 11.4027 5.26363 11.9997 6.00001 11.9997Z" stroke="#FBFBFB"/>
<path d="M10 6.66667C10.7364 6.66667 11.3333 6.06971 11.3333 5.33333C11.3333 4.59695 10.7364 4 10 4C9.26363 4 8.66667 4.59695 8.66667 5.33333C8.66667 6.06971 9.26363 6.66667 10 6.66667Z" stroke="#FBFBFB"/>
</svg>
