<svg xmlns="http://www.w3.org/2000/svg" viewBox="0 0 16.03 15.49"><defs><style>.cls-1{fill:#fff;}</style></defs><g id="Capa_2" data-name="Capa 2"><g id="Capa_1-2" data-name="Capa 1"><path d="M0,9.77l8.24,5.72L16,10.08,16,8.25,8.27,13.78,0,7.9Z"/><path d="M8.33,14l5.85-4.83.12-5.61-12.9,0,.05,5"/><path d="M5,3.59A5.09,5.09,0,0,1,8.48,1.66a5.2,5.2,0,0,1,4.23,1.9Z"/><rect x="1.4" y="1.13" width="2.93" height="4.91"/><path d="M2,1.15l1.89,0A1.05,1.05,0,0,0,2,1.15Z"/><ellipse class="cls-1" cx="5.58" cy="5.75" rx="1.04" ry="1.09"/><ellipse class="cls-1" cx="11.8" cy="5.75" rx="1.04" ry="1.09"/><rect class="cls-1" x="5.43" y="8.67" width="6.23" height="1.47" rx="0.73"/><rect x="2.89" width="0.21" height="0.78" rx="0.1"/><rect x="3.49" y="0.31" width="0.21" height="0.78" rx="0.1" transform="translate(1.06 -1.94) rotate(35.09)"/><rect x="2.23" y="0.22" width="0.21" height="0.78" rx="0.1" transform="translate(-0.06 0.89) rotate(-21.33)"/></g></g></svg>